<svg xmlns="http://www.w3.org/2000/svg" width="16" height="16" viewBox="0 0 16 16">
    <g fill="none" fill-rule="evenodd">
        <path fill="#333" fill-rule="nonzero" d="M3.87 3.11c.233.223.236.588.007.815-1.08 1.072-1.696 2.51-1.696 4.044 0 1.562.639 3.024 1.755 4.1.232.224.234.589.005.815-.23.227-.604.229-.836.005C1.767 11.6 1 9.842 1 7.97c0-1.84.74-3.567 2.035-4.852.23-.227.603-.23.835-.007zm9.015-.001C14.228 4.402 15 6.17 15 8.057c0 1.826-.722 3.54-1.99 4.824-.225.228-.596.233-.828.011-.232-.222-.237-.587-.012-.815 1.057-1.07 1.658-2.498 1.658-4.02 0-1.573-.642-3.045-1.763-4.123-.231-.223-.235-.588-.009-.816.226-.228.597-.232.829-.01zm-2 1.552c.883.881 1.393 2.103 1.393 3.41 0 1.226-.45 2.38-1.238 3.248-.213.234-.566.242-.789.018-.222-.224-.23-.596-.017-.83.593-.652.929-1.516.929-2.436 0-.981-.382-1.896-1.045-2.558-.223-.223-.232-.594-.02-.83.211-.235.564-.245.788-.022zm-5.073.004c.227.227.234.602.015.837-.612.658-.96 1.53-.96 2.462 0 .961.37 1.86 1.019 2.524.225.23.226.604.004.837-.223.232-.585.234-.81.004-.863-.883-1.358-2.084-1.358-3.365 0-1.24.464-2.407 1.28-3.283.22-.235.582-.242.81-.016zM8 6.445c.86 0 1.556.696 1.556 1.555 0 .86-.697 1.556-1.556 1.556-.86 0-1.556-.697-1.556-1.556 0-.86.697-1.556 1.556-1.556z"/>
    </g>
</svg>
